<?xml version="1.0" encoding="UTF-8"?>
<svg xmlns:xhtml="http://www.w3.org/1999/xhtml" xmlns:xlink="http://www.w3.org/1999/xlink" xmlns="http://www.w3.org/2000/svg" id="mermaid-svg-22" width="100%" class="flowchart" style="max-width: 100%;" viewBox="-72.39765625 -72.39765625 2021.51796875 1592.7484375" height="100%"><style>#mermaid-svg-22{font-family:"trebuchet ms",verdana,arial,sans-serif;font-size:16px;fill:#ccc;}@keyframes edge-animation-frame{from{stroke-dashoffset:0;}}@keyframes dash{to{stroke-dashoffset:0;}}#mermaid-svg-22 .edge-animation-slow{stroke-dasharray:9,5!important;stroke-dashoffset:900;animation:dash 50s linear infinite;stroke-linecap:round;}#mermaid-svg-22 .edge-animation-fast{stroke-dasharray:9,5!important;stroke-dashoffset:900;animation:dash 20s linear infinite;stroke-linecap:round;}#mermaid-svg-22 .error-icon{fill:#a44141;}#mermaid-svg-22 .error-text{fill:#ddd;stroke:#ddd;}#mermaid-svg-22 .edge-thickness-normal{stroke-width:1px;}#mermaid-svg-22 .edge-thickness-thick{stroke-width:3.5px;}#mermaid-svg-22 .edge-pattern-solid{stroke-dasharray:0;}#mermaid-svg-22 .edge-thickness-invisible{stroke-width:0;fill:none;}#mermaid-svg-22 .edge-pattern-dashed{stroke-dasharray:3;}#mermaid-svg-22 .edge-pattern-dotted{stroke-dasharray:2;}#mermaid-svg-22 .marker{fill:lightgrey;stroke:lightgrey;}#mermaid-svg-22 .marker.cross{stroke:lightgrey;}#mermaid-svg-22 svg{font-family:"trebuchet ms",verdana,arial,sans-serif;font-size:16px;}#mermaid-svg-22 p{margin:0;}#mermaid-svg-22 .label{font-family:"trebuchet ms",verdana,arial,sans-serif;color:#ccc;}#mermaid-svg-22 .cluster-label text{fill:#F9FFFE;}#mermaid-svg-22 .cluster-label span{color:#F9FFFE;}#mermaid-svg-22 .cluster-label span p{background-color:transparent;}#mermaid-svg-22 .label text,#mermaid-svg-22 span{fill:#ccc;color:#ccc;}#mermaid-svg-22 .node rect,#mermaid-svg-22 .node circle,#mermaid-svg-22 .node ellipse,#mermaid-svg-22 .node polygon,#mermaid-svg-22 .node path{fill:#1f2020;stroke:#ccc;stroke-width:1px;}#mermaid-svg-22 .rough-node .label text,#mermaid-svg-22 .node .label text,#mermaid-svg-22 .image-shape .label,#mermaid-svg-22 .icon-shape .label{text-anchor:middle;}#mermaid-svg-22 .node .katex path{fill:#000;stroke:#000;stroke-width:1px;}#mermaid-svg-22 .rough-node .label,#mermaid-svg-22 .node .label,#mermaid-svg-22 .image-shape .label,#mermaid-svg-22 .icon-shape .label{text-align:center;}#mermaid-svg-22 .node.clickable{cursor:pointer;}#mermaid-svg-22 .root .anchor path{fill:lightgrey!important;stroke-width:0;stroke:lightgrey;}#mermaid-svg-22 .arrowheadPath{fill:lightgrey;}#mermaid-svg-22 .edgePath .path{stroke:lightgrey;stroke-width:2.0px;}#mermaid-svg-22 .flowchart-link{stroke:lightgrey;fill:none;}#mermaid-svg-22 .edgeLabel{background-color:hsl(0, 0%, 34.4117647059%);text-align:center;}#mermaid-svg-22 .edgeLabel p{background-color:hsl(0, 0%, 34.4117647059%);}#mermaid-svg-22 .edgeLabel rect{opacity:0.5;background-color:hsl(0, 0%, 34.4117647059%);fill:hsl(0, 0%, 34.4117647059%);}#mermaid-svg-22 .labelBkg{background-color:rgba(87.75, 87.75, 87.75, 0.5);}#mermaid-svg-22 .cluster rect{fill:hsl(180, 1.5873015873%, 28.3529411765%);stroke:rgba(255, 255, 255, 0.25);stroke-width:1px;}#mermaid-svg-22 .cluster text{fill:#F9FFFE;}#mermaid-svg-22 .cluster span{color:#F9FFFE;}#mermaid-svg-22 div.mermaidTooltip{position:absolute;text-align:center;max-width:200px;padding:2px;font-family:"trebuchet ms",verdana,arial,sans-serif;font-size:12px;background:hsl(20, 1.5873015873%, 12.3529411765%);border:1px solid rgba(255, 255, 255, 0.25);border-radius:2px;pointer-events:none;z-index:100;}#mermaid-svg-22 .flowchartTitleText{text-anchor:middle;font-size:18px;fill:#ccc;}#mermaid-svg-22 rect.text{fill:none;stroke-width:0;}#mermaid-svg-22 .icon-shape,#mermaid-svg-22 .image-shape{background-color:hsl(0, 0%, 34.4117647059%);text-align:center;}#mermaid-svg-22 .icon-shape p,#mermaid-svg-22 .image-shape p{background-color:hsl(0, 0%, 34.4117647059%);padding:2px;}#mermaid-svg-22 .icon-shape rect,#mermaid-svg-22 .image-shape rect{opacity:0.5;background-color:hsl(0, 0%, 34.4117647059%);fill:hsl(0, 0%, 34.4117647059%);}#mermaid-svg-22 .label-icon{display:inline-block;height:1em;overflow:visible;vertical-align:-0.125em;}#mermaid-svg-22 .node .label-icon path{fill:currentColor;stroke:revert;stroke-width:revert;}#mermaid-svg-22 :root{--mermaid-font-family:"trebuchet ms",verdana,arial,sans-serif;}</style><g><marker id="mermaid-svg-22_flowchart-v2-pointEnd" class="marker flowchart-v2" viewBox="0 0 10 10" refX="5" refY="5" markerUnits="userSpaceOnUse" markerWidth="8" markerHeight="8" orient="auto"><path d="M 0 0 L 10 5 L 0 10 z" class="arrowMarkerPath" style="stroke-width: 1; stroke-dasharray: 1, 0;"/></marker><marker id="mermaid-svg-22_flowchart-v2-pointStart" class="marker flowchart-v2" viewBox="0 0 10 10" refX="4.5" refY="5" markerUnits="userSpaceOnUse" markerWidth="8" markerHeight="8" orient="auto"><path d="M 0 5 L 10 10 L 10 0 z" class="arrowMarkerPath" style="stroke-width: 1; stroke-dasharray: 1, 0;"/></marker><marker id="mermaid-svg-22_flowchart-v2-circleEnd" class="marker flowchart-v2" viewBox="0 0 10 10" refX="11" refY="5" markerUnits="userSpaceOnUse" markerWidth="11" markerHeight="11" orient="auto"><circle cx="5" cy="5" r="5" class="arrowMarkerPath" style="stroke-width: 1; stroke-dasharray: 1, 0;"/></marker><marker id="mermaid-svg-22_flowchart-v2-circleStart" class="marker flowchart-v2" viewBox="0 0 10 10" refX="-1" refY="5" markerUnits="userSpaceOnUse" markerWidth="11" markerHeight="11" orient="auto"><circle cx="5" cy="5" r="5" class="arrowMarkerPath" style="stroke-width: 1; stroke-dasharray: 1, 0;"/></marker><marker id="mermaid-svg-22_flowchart-v2-crossEnd" class="marker cross flowchart-v2" viewBox="0 0 11 11" refX="12" refY="5.2" markerUnits="userSpaceOnUse" markerWidth="11" markerHeight="11" orient="auto"><path d="M 1,1 l 9,9 M 10,1 l -9,9" class="arrowMarkerPath" style="stroke-width: 2; stroke-dasharray: 1, 0;"/></marker><marker id="mermaid-svg-22_flowchart-v2-crossStart" class="marker cross flowchart-v2" viewBox="0 0 11 11" refX="-1" refY="5.2" markerUnits="userSpaceOnUse" markerWidth="11" markerHeight="11" orient="auto"><path d="M 1,1 l 9,9 M 10,1 l -9,9" class="arrowMarkerPath" style="stroke-width: 2; stroke-dasharray: 1, 0;"/></marker><g class="root"><g class="clusters"><g class="cluster" id="Database" data-look="classic"><rect style="" x="29.140625" y="701" width="285.1875" height="104"/><g class="cluster-label" transform="translate(138.984375, 701)"><foreignObject width="65.5" height="24"><div xmlns="http://www.w3.org/1999/xhtml" style="display: table-cell; white-space: nowrap; line-height: 1.5; max-width: 200px; text-align: center;"><span class="nodeLabel"><p>Database</p></span></div></foreignObject></g></g><g class="cluster" id="Services" data-look="classic"><rect style="" x="8" y="136" width="585.4375" height="515"/><g class="cluster-label" transform="translate(271.6328125, 136)"><foreignObject width="58.171875" height="24"><div xmlns="http://www.w3.org/1999/xhtml" style="display: table-cell; white-space: nowrap; line-height: 1.5; max-width: 200px; text-align: center;"><span class="nodeLabel"><p>Services</p></span></div></foreignObject></g></g><g class="cluster" id="OCR_Engine" data-look="classic"><rect style="" x="1109.94921875" y="523" width="758.7734375" height="916.953125"/><g class="cluster-label" transform="translate(1389.3359375, 523)"><foreignObject width="200" height="48"><div xmlns="http://www.w3.org/1999/xhtml" style="display: table; white-space: break-spaces; line-height: 1.5; max-width: 200px; text-align: center; width: 200px;"><span class="nodeLabel"><p>Гибридный OCR (OpenCV + 3 движка)</p></span></div></foreignObject></g></g><g class="cluster" id="Handlers" data-look="classic"><rect style="" x="613.4375" y="369" width="1058.8046875" height="104"/><g class="cluster-label" transform="translate(1111.50390625, 369)"><foreignObject width="62.671875" height="24"><div xmlns="http://www.w3.org/1999/xhtml" style="display: table-cell; white-space: nowrap; line-height: 1.5; max-width: 200px; text-align: center;"><span class="nodeLabel"><p>Handlers</p></span></div></foreignObject></g></g></g><g class="edgePaths"><path d="M1555.078,62L1555.078,68.167C1555.078,74.333,1555.078,86.667,1555.078,99C1555.078,111.333,1555.078,123.667,1555.078,133.333C1555.078,143,1555.078,150,1555.078,153.5L1555.078,157" id="L_User_TG_0" class="edge-thickness-normal edge-pattern-solid edge-thickness-normal edge-pattern-solid flowchart-link" style="" marker-end="url(#mermaid-svg-22_flowchart-v2-pointEnd)"/><path d="M1555.078,215L1555.078,219.167C1555.078,223.333,1555.078,231.667,1555.078,239.333C1555.078,247,1555.078,254,1555.078,257.5L1555.078,261" id="L_TG_Dispatcher_0" class="edge-thickness-normal edge-pattern-solid edge-thickness-normal edge-pattern-solid flowchart-link" style="" marker-end="url(#mermaid-svg-22_flowchart-v2-pointEnd)"/><path d="M1664.318,626L1675.989,630.167C1687.66,634.333,1711.002,642.667,1722.673,651C1734.344,659.333,1734.344,667.667,1734.344,676C1734.344,684.333,1734.344,692.667,1734.344,700.333C1734.344,708,1734.344,715,1734.344,718.5L1734.344,722" id="L_Preprocess_OCR1_0" class="edge-thickness-normal edge-pattern-solid edge-thickness-normal edge-pattern-solid flowchart-link" style="" marker-end="url(#mermaid-svg-22_flowchart-v2-pointEnd)"/><path d="M1555.078,626L1555.078,630.167C1555.078,634.333,1555.078,642.667,1555.078,651C1555.078,659.333,1555.078,667.667,1555.078,676C1555.078,684.333,1555.078,692.667,1555.078,700.333C1555.078,708,1555.078,715,1555.078,718.5L1555.078,722" id="L_Preprocess_OCR2_0" class="edge-thickness-normal edge-pattern-solid edge-thickness-normal edge-pattern-solid flowchart-link" style="" marker-end="url(#mermaid-svg-22_flowchart-v2-pointEnd)"/><path d="M1449.166,626L1437.85,630.167C1426.535,634.333,1403.904,642.667,1392.589,651C1381.273,659.333,1381.273,667.667,1381.273,676C1381.273,684.333,1381.273,692.667,1381.273,700.333C1381.273,708,1381.273,715,1381.273,718.5L1381.273,722" id="L_Preprocess_OCR3_0" class="edge-thickness-normal edge-pattern-solid edge-thickness-normal edge-pattern-solid flowchart-link" style="" marker-end="url(#mermaid-svg-22_flowchart-v2-pointEnd)"/><path d="M1734.344,780L1734.344,784.167C1734.344,788.333,1734.344,796.667,1734.344,805C1734.344,813.333,1734.344,821.667,1724.447,829.754C1714.55,837.842,1694.757,845.684,1684.86,849.606L1674.963,853.527" id="L_OCR1_ResultAgg_0" class="edge-thickness-normal edge-pattern-solid edge-thickness-normal edge-pattern-solid flowchart-link" style="" marker-end="url(#mermaid-svg-22_flowchart-v2-pointEnd)"/><path d="M1555.078,780L1555.078,784.167C1555.078,788.333,1555.078,796.667,1555.078,805C1555.078,813.333,1555.078,821.667,1558.474,829.51C1561.869,837.354,1568.66,844.708,1572.055,848.384L1575.451,852.061" id="L_OCR2_ResultAgg_0" class="edge-thickness-normal edge-pattern-solid edge-thickness-normal edge-pattern-solid flowchart-link" style="" marker-end="url(#mermaid-svg-22_flowchart-v2-pointEnd)"/><path d="M1381.273,780L1381.273,784.167C1381.273,788.333,1381.273,796.667,1381.273,805C1381.273,813.333,1381.273,821.667,1398.564,829.887C1415.854,838.106,1450.435,846.213,1467.725,850.266L1485.016,854.319" id="L_OCR3_ResultAgg_0" class="edge-thickness-normal edge-pattern-solid edge-thickness-normal edge-pattern-solid flowchart-link" style="" marker-end="url(#mermaid-svg-22_flowchart-v2-pointEnd)"/><path d="M1603.098,909L1603.098,915.167C1603.098,921.333,1603.098,933.667,1603.172,945.417C1603.247,957.167,1603.395,968.334,1603.47,973.917L1603.544,979.5" id="L_ResultAgg_FinalValue_0" class="edge-thickness-normal edge-pattern-solid edge-thickness-normal edge-pattern-solid flowchart-link" style="" marker-end="url(#mermaid-svg-22_flowchart-v2-pointEnd)"/><path d="M1540.846,1128.701L1515.455,1145.243C1490.065,1161.785,1439.285,1194.869,1407.466,1217.134C1375.647,1239.4,1362.79,1250.847,1356.362,1256.57L1349.934,1262.293" id="L_FinalValue_FormulaService_0" class="edge-thickness-normal edge-pattern-solid edge-thickness-normal edge-pattern-solid flowchart-link" style="" marker-end="url(#mermaid-svg-22_flowchart-v2-pointEnd)"/><path d="M1646.903,1148.148L1656.373,1161.449C1665.843,1174.75,1684.783,1201.351,1694.253,1224.152C1703.723,1246.953,1703.723,1265.953,1703.723,1275.453L1703.723,1284.953" id="L_FinalValue_FailMessage_0" class="edge-thickness-normal edge-pattern-solid edge-thickness-normal edge-pattern-solid flowchart-link" style="" marker-end="url(#mermaid-svg-22_flowchart-v2-pointEnd)"/><path d="M1257.531,448L1257.531,452.167C1257.531,456.333,1257.531,464.667,1257.531,473C1257.531,481.333,1257.531,489.667,1257.531,498C1257.531,506.333,1257.531,514.667,1257.531,529.5C1257.531,544.333,1257.531,565.667,1257.531,587C1257.531,608.333,1257.531,629.667,1257.531,644.5C1257.531,659.333,1257.531,667.667,1257.531,676C1257.531,684.333,1257.531,692.667,1257.531,705.5C1257.531,718.333,1257.531,735.667,1257.531,753C1257.531,770.333,1257.531,787.667,1257.531,800.5C1257.531,813.333,1257.531,821.667,1257.531,834.5C1257.531,847.333,1257.531,864.667,1257.531,884C1257.531,903.333,1257.531,924.667,1257.531,958.829C1257.531,992.992,1257.531,1039.984,1257.531,1086.977C1257.531,1133.969,1257.531,1180.961,1257.785,1209.958C1258.04,1238.955,1258.548,1249.956,1258.802,1255.457L1259.056,1260.957" id="L_FoodHandler_FormulaService_0" class="edge-thickness-normal edge-pattern-solid edge-thickness-normal edge-pattern-solid flowchart-link" style="" marker-end="url(#mermaid-svg-22_flowchart-v2-pointEnd)"/><path d="M987.273,448L987.273,452.167C987.273,456.333,987.273,464.667,898.47,473C809.667,481.333,632.06,489.667,543.257,498C454.453,506.333,454.453,514.667,454.453,524.333C454.453,534,454.453,545,454.453,550.5L454.453,556" id="L_FSMHandler_ProfileService_0" class="edge-thickness-normal edge-pattern-solid edge-thickness-normal edge-pattern-solid flowchart-link" style="" marker-end="url(#mermaid-svg-22_flowchart-v2-pointEnd)"/><path d="M300.719,215L300.719,219.167C300.719,223.333,300.719,231.667,492.576,243.787C684.433,255.907,1068.148,271.814,1260.005,279.768L1451.863,287.721" id="L_ReminderService_Dispatcher_0" class="edge-thickness-normal edge-pattern-solid edge-thickness-normal edge-pattern-solid flowchart-link" style="" marker-end="url(#mermaid-svg-22_flowchart-v2-pointEnd)"/><path d="M1555.078,319L1555.078,323.167C1555.078,327.333,1555.078,335.667,1555.078,343.333C1555.078,351,1555.078,358,1555.078,361.5L1555.078,365" id="L_Dispatcher_Handlers_0" class="edge-thickness-normal edge-pattern-solid edge-thickness-normal edge-pattern-solid flowchart-link" style="" marker-end="url(#mermaid-svg-22_flowchart-v2-pointEnd)"/><path d="M1555.078,448L1555.078,452.167C1555.078,456.333,1555.078,464.667,1555.078,473C1555.078,481.333,1555.078,489.667,1555.078,497.333C1555.078,505,1555.078,512,1555.078,515.5L1555.078,519" id="L_PhotoHandler_OCR_Engine_0" class="edge-thickness-normal edge-pattern-solid edge-thickness-normal edge-pattern-solid flowchart-link" style="" marker-end="url(#mermaid-svg-22_flowchart-v2-pointEnd)"/><path d="M739.258,448L739.258,452.167C739.258,456.333,739.258,464.667,715.616,471.845C691.974,479.024,644.69,485.047,621.047,488.059L597.405,491.071" id="L_CmdHandler_Services_0" class="edge-thickness-normal edge-pattern-solid edge-thickness-normal edge-pattern-solid flowchart-link" style="" marker-end="url(#mermaid-svg-22_flowchart-v2-pointEnd)"/><path d="M171.734,651L171.734,655.167C171.734,659.333,171.734,667.667,171.734,676C171.734,684.333,171.734,692.667,171.734,700.333C171.734,708,171.734,715,171.734,718.5L171.734,722" id="L_Services_DB_0" class="edge-thickness-normal edge-pattern-solid edge-thickness-normal edge-pattern-solid flowchart-link" style="" marker-end="url(#mermaid-svg-22_flowchart-v2-pointEnd)"/></g><g class="edgeLabels"><g class="edgeLabel" transform="translate(1555.078125, 99)"><g class="label" transform="translate(-63.578125, -12)"><foreignObject width="127.15625" height="24"><div xmlns="http://www.w3.org/1999/xhtml" class="labelBkg" style="display: table-cell; white-space: nowrap; line-height: 1.5; max-width: 200px; text-align: center;"><span class="edgeLabel"><p>фото/сообщение</p></span></div></foreignObject></g></g><g class="edgeLabel"><g class="label" transform="translate(0, 0)"><foreignObject width="0" height="0"><div xmlns="http://www.w3.org/1999/xhtml" class="labelBkg" style="display: table-cell; white-space: nowrap; line-height: 1.5; max-width: 200px; text-align: center;"><span class="edgeLabel"></span></div></foreignObject></g></g><g class="edgeLabel"><g class="label" transform="translate(0, 0)"><foreignObject width="0" height="0"><div xmlns="http://www.w3.org/1999/xhtml" class="labelBkg" style="display: table-cell; white-space: nowrap; line-height: 1.5; max-width: 200px; text-align: center;"><span class="edgeLabel"></span></div></foreignObject></g></g><g class="edgeLabel"><g class="label" transform="translate(0, 0)"><foreignObject width="0" height="0"><div xmlns="http://www.w3.org/1999/xhtml" class="labelBkg" style="display: table-cell; white-space: nowrap; line-height: 1.5; max-width: 200px; text-align: center;"><span class="edgeLabel"></span></div></foreignObject></g></g><g class="edgeLabel"><g class="label" transform="translate(0, 0)"><foreignObject width="0" height="0"><div xmlns="http://www.w3.org/1999/xhtml" class="labelBkg" style="display: table-cell; white-space: nowrap; line-height: 1.5; max-width: 200px; text-align: center;"><span class="edgeLabel"></span></div></foreignObject></g></g><g class="edgeLabel"><g class="label" transform="translate(0, 0)"><foreignObject width="0" height="0"><div xmlns="http://www.w3.org/1999/xhtml" class="labelBkg" style="display: table-cell; white-space: nowrap; line-height: 1.5; max-width: 200px; text-align: center;"><span class="edgeLabel"></span></div></foreignObject></g></g><g class="edgeLabel"><g class="label" transform="translate(0, 0)"><foreignObject width="0" height="0"><div xmlns="http://www.w3.org/1999/xhtml" class="labelBkg" style="display: table-cell; white-space: nowrap; line-height: 1.5; max-width: 200px; text-align: center;"><span class="edgeLabel"></span></div></foreignObject></g></g><g class="edgeLabel"><g class="label" transform="translate(0, 0)"><foreignObject width="0" height="0"><div xmlns="http://www.w3.org/1999/xhtml" class="labelBkg" style="display: table-cell; white-space: nowrap; line-height: 1.5; max-width: 200px; text-align: center;"><span class="edgeLabel"></span></div></foreignObject></g></g><g class="edgeLabel" transform="translate(1603.09765625, 946)"><g class="label" transform="translate(-99, -12)"><foreignObject width="198" height="24"><div xmlns="http://www.w3.org/1999/xhtml" class="labelBkg" style="display: table-cell; white-space: nowrap; line-height: 1.5; max-width: 200px; text-align: center;"><span class="edgeLabel"><p>проверка согласованности</p></span></div></foreignObject></g></g><g class="edgeLabel" transform="translate(1441.36446, 1193.51405)"><g class="label" transform="translate(-8.734375, -12)"><foreignObject width="17.46875" height="24"><div xmlns="http://www.w3.org/1999/xhtml" class="labelBkg" style="display: table-cell; white-space: nowrap; line-height: 1.5; max-width: 200px; text-align: center;"><span class="edgeLabel"><p>да</p></span></div></foreignObject></g></g><g class="edgeLabel" transform="translate(1703.72265625, 1227.953125)"><g class="label" transform="translate(-12.4765625, -12)"><foreignObject width="24.953125" height="24"><div xmlns="http://www.w3.org/1999/xhtml" class="labelBkg" style="display: table-cell; white-space: nowrap; line-height: 1.5; max-width: 200px; text-align: center;"><span class="edgeLabel"><p>нет</p></span></div></foreignObject></g></g><g class="edgeLabel"><g class="label" transform="translate(0, 0)"><foreignObject width="0" height="0"><div xmlns="http://www.w3.org/1999/xhtml" class="labelBkg" style="display: table-cell; white-space: nowrap; line-height: 1.5; max-width: 200px; text-align: center;"><span class="edgeLabel"></span></div></foreignObject></g></g><g class="edgeLabel"><g class="label" transform="translate(0, 0)"><foreignObject width="0" height="0"><div xmlns="http://www.w3.org/1999/xhtml" class="labelBkg" style="display: table-cell; white-space: nowrap; line-height: 1.5; max-width: 200px; text-align: center;"><span class="edgeLabel"></span></div></foreignObject></g></g><g class="edgeLabel"><g class="label" transform="translate(0, 0)"><foreignObject width="0" height="0"><div xmlns="http://www.w3.org/1999/xhtml" class="labelBkg" style="display: table-cell; white-space: nowrap; line-height: 1.5; max-width: 200px; text-align: center;"><span class="edgeLabel"></span></div></foreignObject></g></g><g class="edgeLabel"><g class="label" transform="translate(0, 0)"><foreignObject width="0" height="0"><div xmlns="http://www.w3.org/1999/xhtml" class="labelBkg" style="display: table-cell; white-space: nowrap; line-height: 1.5; max-width: 200px; text-align: center;"><span class="edgeLabel"></span></div></foreignObject></g></g><g class="edgeLabel"><g class="label" transform="translate(0, 0)"><foreignObject width="0" height="0"><div xmlns="http://www.w3.org/1999/xhtml" class="labelBkg" style="display: table-cell; white-space: nowrap; line-height: 1.5; max-width: 200px; text-align: center;"><span class="edgeLabel"></span></div></foreignObject></g></g><g class="edgeLabel"><g class="label" transform="translate(0, 0)"><foreignObject width="0" height="0"><div xmlns="http://www.w3.org/1999/xhtml" class="labelBkg" style="display: table-cell; white-space: nowrap; line-height: 1.5; max-width: 200px; text-align: center;"><span class="edgeLabel"></span></div></foreignObject></g></g><g class="edgeLabel"><g class="label" transform="translate(0, 0)"><foreignObject width="0" height="0"><div xmlns="http://www.w3.org/1999/xhtml" class="labelBkg" style="display: table-cell; white-space: nowrap; line-height: 1.5; max-width: 200px; text-align: center;"><span class="edgeLabel"></span></div></foreignObject></g></g></g><g class="nodes"><g class="node default" id="flowchart-User-0" transform="translate(1555.078125, 35)"><rect class="basic label-container" style="" x="-80.640625" y="-27" width="161.28125" height="54"/><g class="label" style="" transform="translate(-50.640625, -12)"><rect/><foreignObject width="101.28125" height="24"><div xmlns="http://www.w3.org/1999/xhtml" style="display: table-cell; white-space: nowrap; line-height: 1.5; max-width: 200px; text-align: center;"><span class="nodeLabel"><p>Пользователь</p></span></div></foreignObject></g></g><g class="node default" id="flowchart-TG-1" transform="translate(1555.078125, 188)"><rect class="basic label-container" style="" x="-62.703125" y="-27" width="125.40625" height="54"/><g class="label" style="" transform="translate(-32.703125, -12)"><rect/><foreignObject width="65.40625" height="24"><div xmlns="http://www.w3.org/1999/xhtml" style="display: table-cell; white-space: nowrap; line-height: 1.5; max-width: 200px; text-align: center;"><span class="nodeLabel"><p>Telegram</p></span></div></foreignObject></g></g><g class="node default" id="flowchart-Dispatcher-3" transform="translate(1555.078125, 292)"><rect class="basic label-container" style="" x="-99.21875" y="-27" width="198.4375" height="54"/><g class="label" style="" transform="translate(-69.21875, -12)"><rect/><foreignObject width="138.4375" height="24"><div xmlns="http://www.w3.org/1999/xhtml" style="display: table-cell; white-space: nowrap; line-height: 1.5; max-width: 200px; text-align: center;"><span class="nodeLabel"><p>aiogram Dispatcher</p></span></div></foreignObject></g></g><g class="node default" id="flowchart-PhotoHandler-4" transform="translate(1555.078125, 421)"><rect class="basic label-container" style="" x="-82.1640625" y="-27" width="164.328125" height="54"/><g class="label" style="" transform="translate(-52.1640625, -12)"><rect/><foreignObject width="104.328125" height="24"><div xmlns="http://www.w3.org/1999/xhtml" style="display: table-cell; white-space: nowrap; line-height: 1.5; max-width: 200px; text-align: center;"><span class="nodeLabel"><p>Хендлер фото</p></span></div></foreignObject></g></g><g class="node default" id="flowchart-CmdHandler-5" transform="translate(739.2578125, 421)"><rect class="basic label-container" style="" x="-90.8203125" y="-27" width="181.640625" height="54"/><g class="label" style="" transform="translate(-60.8203125, -12)"><rect/><foreignObject width="121.640625" height="24"><div xmlns="http://www.w3.org/1999/xhtml" style="display: table-cell; white-space: nowrap; line-height: 1.5; max-width: 200px; text-align: center;"><span class="nodeLabel"><p>Хендлер команд</p></span></div></foreignObject></g></g><g class="node default" id="flowchart-FoodHandler-6" transform="translate(1257.53125, 421)"><rect class="basic label-container" style="" x="-113.0625" y="-27" width="226.125" height="54"/><g class="label" style="" transform="translate(-83.0625, -12)"><rect/><foreignObject width="166.125" height="24"><div xmlns="http://www.w3.org/1999/xhtml" style="display: table-cell; white-space: nowrap; line-height: 1.5; max-width: 200px; text-align: center;"><span class="nodeLabel"><p>Хендлер фраз про еду</p></span></div></foreignObject></g></g><g class="node default" id="flowchart-FSMHandler-7" transform="translate(987.2734375, 421)"><rect class="basic label-container" style="" x="-107.1953125" y="-27" width="214.390625" height="54"/><g class="label" style="" transform="translate(-77.1953125, -12)"><rect/><foreignObject width="154.390625" height="24"><div xmlns="http://www.w3.org/1999/xhtml" style="display: table-cell; white-space: nowrap; line-height: 1.5; max-width: 200px; text-align: center;"><span class="nodeLabel"><p>Хендлеры состояний</p></span></div></foreignObject></g></g><g class="node default" id="flowchart-Preprocess-8" transform="translate(1555.078125, 587)"><rect class="basic label-container" style="" x="-130" y="-39" width="260" height="78"/><g class="label" style="" transform="translate(-100, -24)"><rect/><foreignObject width="200" height="48"><div xmlns="http://www.w3.org/1999/xhtml" style="display: table; white-space: break-spaces; line-height: 1.5; max-width: 200px; text-align: center; width: 200px;"><span class="nodeLabel"><p>OpenCV: серый, бинаризация, обрезка</p></span></div></foreignObject></g></g><g class="node default" id="flowchart-OCR1-9" transform="translate(1734.34375, 753)"><rect class="basic label-container" style="" x="-68.7578125" y="-27" width="137.515625" height="54"/><g class="label" style="" transform="translate(-38.7578125, -12)"><rect/><foreignObject width="77.515625" height="24"><div xmlns="http://www.w3.org/1999/xhtml" style="display: table-cell; white-space: nowrap; line-height: 1.5; max-width: 200px; text-align: center;"><span class="nodeLabel"><p>PaddleOCR</p></span></div></foreignObject></g></g><g class="node default" id="flowchart-OCR2-11" transform="translate(1555.078125, 753)"><rect class="basic label-container" style="" x="-60.5078125" y="-27" width="121.015625" height="54"/><g class="label" style="" transform="translate(-30.5078125, -12)"><rect/><foreignObject width="61.015625" height="24"><div xmlns="http://www.w3.org/1999/xhtml" style="display: table-cell; white-space: nowrap; line-height: 1.5; max-width: 200px; text-align: center;"><span class="nodeLabel"><p>EasyOCR</p></span></div></foreignObject></g></g><g class="node default" id="flowchart-OCR3-13" transform="translate(1381.2734375, 753)"><rect class="basic label-container" style="" x="-63.296875" y="-27" width="126.59375" height="54"/><g class="label" style="" transform="translate(-33.296875, -12)"><rect/><foreignObject width="66.59375" height="24"><div xmlns="http://www.w3.org/1999/xhtml" style="display: table-cell; white-space: nowrap; line-height: 1.5; max-width: 200px; text-align: center;"><span class="nodeLabel"><p>Tesseract</p></span></div></foreignObject></g></g><g class="node default" id="flowchart-ResultAgg-15" transform="translate(1603.09765625, 882)"><rect class="basic label-container" style="" x="-114.1875" y="-27" width="228.375" height="54"/><g class="label" style="" transform="translate(-84.1875, -12)"><rect/><foreignObject width="168.375" height="24"><div xmlns="http://www.w3.org/1999/xhtml" style="display: table-cell; white-space: nowrap; line-height: 1.5; max-width: 200px; text-align: center;"><span class="nodeLabel"><p>Агрегатор результатов</p></span></div></foreignObject></g></g><g class="node default" id="flowchart-FinalValue-21" transform="translate(1603.09765625, 1086.9765625)"><polygon points="103.9765625,0 207.953125,-103.9765625 103.9765625,-207.953125 0,-103.9765625" class="label-container" transform="translate(-103.4765625, 103.9765625)"/><g class="label" style="" transform="translate(-76.9765625, -12)"><rect/><foreignObject width="153.953125" height="24"><div xmlns="http://www.w3.org/1999/xhtml" style="display: table-cell; white-space: nowrap; line-height: 1.5; max-width: 200px; text-align: center;"><span class="nodeLabel"><p>Надёжное значение?</p></span></div></foreignObject></g></g><g class="node default" id="flowchart-FormulaService-23" transform="translate(1262.70703125, 1339.953125)"><rect class="basic label-container" style="" x="-117.7578125" y="-75" width="235.515625" height="150"/><g class="label" style="" transform="translate(-87.7578125, -60)"><rect/><foreignObject width="175.515625" height="120"><div xmlns="http://www.w3.org/1999/xhtml" style="display: table-cell; white-space: nowrap; line-height: 1.5; max-width: 200px; text-align: center;"><span class="nodeLabel"><p>Расчёт доз:<br />- ISF (утро/день/вечер)<br />- I:C ratio<br />- Добавки на приёмы<br />- Целевой сахар</p></span></div></foreignObject></g></g><g class="node default" id="flowchart-FailMessage-25" transform="translate(1703.72265625, 1339.953125)"><rect class="basic label-container" style="" x="-130" y="-51" width="260" height="102"/><g class="label" style="" transform="translate(-100, -36)"><rect/><foreignObject width="200" height="72"><div xmlns="http://www.w3.org/1999/xhtml" style="display: table; white-space: break-spaces; line-height: 1.5; max-width: 200px; text-align: center; width: 200px;"><span class="nodeLabel"><p>Сообщение о расхождении<br />+ запрос ручного ввода</p></span></div></foreignObject></g></g><g class="node default" id="flowchart-JournalService-27" transform="translate(171.734375, 587)"><rect class="basic label-container" style="" x="-128.734375" y="-27" width="257.46875" height="54"/><g class="label" style="" transform="translate(-98.734375, -12)"><rect/><foreignObject width="197.46875" height="24"><div xmlns="http://www.w3.org/1999/xhtml" style="display: table-cell; white-space: nowrap; line-height: 1.5; max-width: 200px; text-align: center;"><span class="nodeLabel"><p>Журнал: запись / выборка</p></span></div></foreignObject></g></g><g class="node default" id="flowchart-ReminderService-28" transform="translate(300.71875, 188)"><rect class="basic label-container" style="" x="-93.4765625" y="-27" width="186.953125" height="54"/><g class="label" style="" transform="translate(-63.4765625, -12)"><rect/><foreignObject width="126.953125" height="24"><div xmlns="http://www.w3.org/1999/xhtml" style="display: table-cell; white-space: nowrap; line-height: 1.5; max-width: 200px; text-align: center;"><span class="nodeLabel"><p>APScheduler + БД</p></span></div></foreignObject></g></g><g class="node default" id="flowchart-ProfileService-29" transform="translate(454.453125, 587)"><rect class="basic label-container" style="" x="-103.984375" y="-27" width="207.96875" height="54"/><g class="label" style="" transform="translate(-73.984375, -12)"><rect/><foreignObject width="147.96875" height="24"><div xmlns="http://www.w3.org/1999/xhtml" style="display: table-cell; white-space: nowrap; line-height: 1.5; max-width: 200px; text-align: center;"><span class="nodeLabel"><p>Настройки профиля</p></span></div></foreignObject></g></g><g class="node default" id="flowchart-DB-30" transform="translate(171.734375, 753)"><rect class="basic label-container" style="" x="-107.59375" y="-27" width="215.1875" height="54"/><g class="label" style="" transform="translate(-77.59375, -12)"><rect/><foreignObject width="155.1875" height="24"><div xmlns="http://www.w3.org/1999/xhtml" style="display: table-cell; white-space: nowrap; line-height: 1.5; max-width: 200px; text-align: center;"><span class="nodeLabel"><p>(SQLite / PostgreSQL)</p></span></div></foreignObject></g></g></g></g></g></svg>